{
  "source": "C:\\Users\\Peter\\Desktop\\stuff\\MIUN\\quantitative_research\\video_compression\\videos\\BVI-HD\\BVI-HD_CDVL_videos\\ORIG\\PlasmaAveragePan_1920x1080_60fps.mp4",
  "output": "C:\\Users\\Peter\\Desktop\\stuff\\MIUN\\quantitative_research\\video_compression\\compressed_videos\\BVI-HD\\av1\\1\\PlasmaAveragePan_1920x1080_60fps_av1.mkv",
  "codec": "av1",
  "ok": "Input #0, mov,mp4,m4a,3gp,3g2,mj2, from 'C:\\Users\\Peter\\Desktop\\stuff\\MIUN\\quantitative_research\\video_compression\\videos\\BVI-HD\\BVI-HD_CDVL_videos\\ORIG\\PlasmaAveragePan_1920x1080_60fps.mp4':\n  Metadata:\n    major_brand     : isom\n    minor_version   : 512\n    compatible_brands: isomiso2avc1mp41\n    encoder         : Lavf54.28.101\n  Duration: 00:00:05.00, start: 0.000000, bitrate: 73730 kb/s\n  Stream #0:0[0x1](und): Video: h264 (High 4:4:4 Predictive) (avc1 / 0x31637661), yuv420p(progressive), 1920x1080, 73727 kb/s, 60 fps, 60 tbr, 60 tbn (default)\n    Metadata:\n      handler_name    : VideoHandler\n      vendor_id       : [0][0][0][0]\n[out#0/matroska @ 000001e972927900] Codec AVOption b:a (set bitrate (in bits/s)) has not been used for any stream. The most likely reason is either wrong type (e.g. a video option with no video streams) or that it is a private option of some decoder which was not actually used for any stream.\nStream mapping:\n  Stream #0:0 -> #0:0 (h264 (native) -> av1 (libsvtav1))\nPress [q] to stop, [?] for help\nSvt[info]: -------------------------------------------\nSvt[info]: SVT [version]:\tSVT-AV1 Encoder Lib v3.1.0-19-g6ecfe8ec\nSvt[info]: SVT [build]  :\tGCC 15.2.0\t 64 bit\nSvt[info]: LIB Build date: Aug 17 2025 11:37:13\nSvt[info]: -------------------------------------------\nSvt[info]: Level of Parallelism: 5\nSvt[info]: Number of PPCS 93\nSvt[info]: [asm level on system : up to avx2]\nSvt[info]: [asm level selected : up to avx2]\nSvt[info]: -------------------------------------------\nSvt[info]: SVT [config]: main profile\ttier (auto)\tlevel (auto)\nSvt[info]: SVT [config]: width / height / fps numerator / fps denominator \t\t: 1920 / 1080 / 60 / 1\nSvt[info]: SVT [config]: bit-depth / color format \t\t\t\t\t: 8 / YUV420\nSvt[info]: SVT [config]: preset / tune / pred struct \t\t\t\t\t: 4 / PSNR / random access\nSvt[info]: SVT [config]: gop size / mini-gop size / key-frame type \t\t\t: 321 / 16 / key frame\nSvt[info]: SVT [config]: BRC mode / target bitrate (kbps)\t\t\t\t: VBR / 1000 \nSvt[info]: SVT [config]: AQ mode / Variance Boost \t\t\t\t\t: 2 / 0\nSvt[info]: SVT [config]: sharpness / luminance-based QP bias \t\t\t\t: 0 / 0\nSvt[info]: SVT [config]: QP scale compress strength \t\t\t\t\t: 0\nSvt[info]: -------------------------------------------\nOutput #0, matroska, to 'C:\\Users\\Peter\\Desktop\\stuff\\MIUN\\quantitative_research\\video_compression\\compressed_videos\\BVI-HD\\av1\\1\\PlasmaAveragePan_1920x1080_60fps_av1.mkv':\n  Metadata:\n    major_brand     : isom\n    minor_version   : 512\n    compatible_brands: isomiso2avc1mp41\n    encoder         : Lavf62.3.100\n  Stream #0:0(und): Video: av1 (AV01 / 0x31305641), yuv420p(tv, progressive), 1920x1080, q=2-31, 1000 kb/s, 60 fps, 1k tbn (default)\n    Metadata:\n      encoder         : Lavc62.11.100 libsvtav1\n      handler_name    : VideoHandler\n      vendor_id       : [0][0][0][0]\n    Side data:\n      cpb: bitrate max/min/avg: 0/0/1000000 buffer size: 1000000 vbv_delay: N/A\nframe=    0 fps=0.0 q=0.0 size=       0KiB time=N/A bitrate=N/A speed=N/A elapsed=0:00:01.04    \nframe=    0 fps=0.0 q=0.0 size=       0KiB time=N/A bitrate=N/A speed=N/A elapsed=0:00:01.57    \nframe=    0 fps=0.0 q=0.0 size=       0KiB time=N/A bitrate=N/A speed=N/A elapsed=0:00:02.11    \nframe=    0 fps=0.0 q=0.0 size=       0KiB time=N/A bitrate=N/A speed=N/A elapsed=0:00:02.65    \nframe=    1 fps=0.3 q=29.0 size=       1KiB time=00:00:00.00 bitrate=N/A speed=   0x elapsed=0:00:03.17    \nframe=    1 fps=0.3 q=29.0 size=       1KiB time=00:00:00.00 bitrate=N/A speed=   0x elapsed=0:00:03.69    \nframe=    2 fps=0.5 q=42.0 size=       1KiB time=00:00:00.01 bitrate= 341.8kbits/s speed=0.00395x elapsed=0:00:04.21    \nframe=    4 fps=0.8 q=42.0 size=       1KiB time=00:00:00.05 bitrate= 113.9kbits/s speed=0.0106x elapsed=0:00:04.72    \nframe=    7 fps=1.3 q=38.0 size=       1KiB time=00:00:00.10 bitrate=  57.0kbits/s speed=0.019x elapsed=0:00:05.26    \nframe=   13 fps=2.2 q=36.0 size=       1KiB time=00:00:00.18 bitrate=  31.1kbits/s speed=0.0316x elapsed=0:00:05.80    \nframe=   19 fps=3.0 q=42.0 size=       1KiB time=00:00:00.30 bitrate=  19.0kbits/s speed=0.0473x elapsed=0:00:06.34    \nframe=   23 fps=3.3 q=42.0 size=       1KiB time=00:00:00.36 bitrate=  15.5kbits/s speed=0.0532x elapsed=0:00:06.88    \nframe=   29 fps=3.9 q=37.0 size=       1KiB time=00:00:00.46 bitrate=  12.2kbits/s speed=0.0627x elapsed=0:00:07.43    \nframe=   35 fps=4.4 q=43.0 size=       1KiB time=00:00:00.56 bitrate=  10.1kbits/s speed=0.0712x elapsed=0:00:07.95    \nframe=   39 fps=4.6 q=43.0 size=       1KiB time=00:00:00.63 bitrate=   9.0kbits/s speed=0.0747x elapsed=0:00:08.48    \nframe=   46 fps=5.1 q=46.0 size=       1KiB time=00:00:00.75 bitrate=   7.6kbits/s speed=0.0833x elapsed=0:00:09.00    \nframe=   52 fps=5.4 q=46.0 size=       1KiB time=00:00:00.85 bitrate=   6.7kbits/s speed=0.089x elapsed=0:00:09.55    \nframe=   58 fps=5.8 q=46.0 size=       1KiB time=00:00:00.93 bitrate=   6.1kbits/s speed=0.0928x elapsed=0:00:10.06    \nframe=   64 fps=6.0 q=48.0 size=       1KiB time=00:00:01.05 bitrate=   5.4kbits/s speed=0.0992x elapsed=0:00:10.58    \nframe=   69 fps=6.2 q=44.0 size=       1KiB time=00:00:01.13 bitrate=   5.0kbits/s speed=0.102x elapsed=0:00:11.10    \nframe=   74 fps=6.4 q=48.0 size=       1KiB time=00:00:01.21 bitrate=   4.7kbits/s speed=0.105x elapsed=0:00:11.62    \nframe=   80 fps=6.6 q=50.0 size=       1KiB time=00:00:01.31 bitrate=   4.3kbits/s speed=0.108x elapsed=0:00:12.14    \nframe=   85 fps=6.7 q=44.0 size=       1KiB time=00:00:01.40 bitrate=   4.1kbits/s speed=0.111x elapsed=0:00:12.65    \nframe=   91 fps=6.9 q=46.0 size=       1KiB time=00:00:01.50 bitrate=   3.8kbits/s speed=0.114x elapsed=0:00:13.17    \nframe=   99 fps=7.2 q=47.0 size=       1KiB time=00:00:01.63 bitrate=   3.5kbits/s speed=0.119x elapsed=0:00:13.70    \nframe=  103 fps=7.2 q=47.0 size=       1KiB time=00:00:01.70 bitrate=   3.4kbits/s speed=0.12x elapsed=0:00:14.21    \nframe=  113 fps=7.7 q=36.0 size=       1KiB time=00:00:01.86 bitrate=   3.1kbits/s speed=0.127x elapsed=0:00:14.74    \nframe=  119 fps=7.8 q=48.0 size=       1KiB time=00:00:01.96 bitrate=   2.9kbits/s speed=0.129x elapsed=0:00:15.26    \nframe=  126 fps=8.0 q=51.0 size=       1KiB time=00:00:02.08 bitrate=   2.7kbits/s speed=0.132x elapsed=0:00:15.80    \nframe=  133 fps=8.1 q=47.0 size=       1KiB time=00:00:02.20 bitrate=   2.6kbits/s speed=0.135x elapsed=0:00:16.32    \nframe=  139 fps=8.3 q=47.0 size=       1KiB time=00:00:02.30 bitrate=   2.5kbits/s speed=0.137x elapsed=0:00:16.83    \nframe=  147 fps=8.5 q=48.0 size=       1KiB time=00:00:02.43 bitrate=   2.3kbits/s speed=0.14x elapsed=0:00:17.36    \nframe=  151 fps=8.4 q=48.0 size=       1KiB time=00:00:02.50 bitrate=   2.3kbits/s speed=0.14x elapsed=0:00:17.89    \nframe=  158 fps=8.6 q=51.0 size=       1KiB time=00:00:02.61 bitrate=   2.2kbits/s speed=0.142x elapsed=0:00:18.40    \nframe=  165 fps=8.7 q=47.0 size=       1KiB time=00:00:02.73 bitrate=   2.1kbits/s speed=0.144x elapsed=0:00:18.92    \nframe=  170 fps=8.7 q=51.0 size=       1KiB time=00:00:02.81 bitrate=   2.0kbits/s speed=0.145x elapsed=0:00:19.45    \nframe=  179 fps=9.0 q=48.0 size=       1KiB time=00:00:02.96 bitrate=   1.9kbits/s speed=0.148x elapsed=0:00:19.98    \nframe=  183 fps=8.9 q=48.0 size=       1KiB time=00:00:03.03 bitrate=   1.9kbits/s speed=0.148x elapsed=0:00:20.50    \nframe=  193 fps=9.2 q=36.0 size=       1KiB time=00:00:03.20 bitrate=   1.8kbits/s speed=0.152x elapsed=0:00:21.03    \nframe=  199 fps=9.2 q=48.0 size=       1KiB time=00:00:03.30 bitrate=   1.7kbits/s speed=0.153x elapsed=0:00:21.54    \nframe=  209 fps=9.5 q=36.0 size=       1KiB time=00:00:03.46 bitrate=   1.6kbits/s speed=0.157x elapsed=0:00:22.08    \nframe=  217 fps=9.6 q=45.0 size=       1KiB time=00:00:03.60 bitrate=   1.6kbits/s speed=0.159x elapsed=0:00:22.59    \nframe=  225 fps=9.7 q=37.0 size=       1KiB time=00:00:03.73 bitrate=   1.5kbits/s speed=0.162x elapsed=0:00:23.10    \nframe=  233 fps=9.9 q=45.0 size=       1KiB time=00:00:03.86 bitrate=   1.5kbits/s speed=0.164x elapsed=0:00:23.62    \nframe=  241 fps= 10 q=37.0 size=       1KiB time=00:00:04.00 bitrate=   1.4kbits/s speed=0.166x elapsed=0:00:24.14    \nframe=  249 fps= 10 q=45.0 size=       1KiB time=00:00:04.13 bitrate=   1.4kbits/s speed=0.168x elapsed=0:00:24.65    \nframe=  253 fps= 10 q=46.0 size=       1KiB time=00:00:04.20 bitrate=   1.4kbits/s speed=0.167x elapsed=0:00:25.17    \nframe=  263 fps= 10 q=48.0 size=       1KiB time=00:00:04.36 bitrate=   1.3kbits/s speed=0.17x elapsed=0:00:25.70    \nframe=  269 fps= 10 q=47.0 size=       1KiB time=00:00:04.46 bitrate=   1.3kbits/s speed=0.17x elapsed=0:00:26.22    \nframe=  279 fps= 10 q=51.0 size=       1KiB time=00:00:04.63 bitrate=   1.2kbits/s speed=0.173x elapsed=0:00:26.74    \nframe=  285 fps= 10 q=51.0 size=       1KiB time=00:00:04.73 bitrate=   1.2kbits/s speed=0.174x elapsed=0:00:27.25    \n[out#0/matroska @ 000001e972927900] video:731KiB audio:0KiB subtitle:0KiB other streams:0KiB global headers:0KiB muxing overhead: 0.282639%\nframe=  300 fps= 11 q=52.0 Lsize=     734KiB time=00:00:04.98 bitrate=1205.8kbits/s speed=0.181x elapsed=0:00:27.50    \n",
  "seconds": 27.89811873435974,
  "probe_out": {}
}